<?xml version="1.0" encoding="UTF-8" standalone="no"?>
<svg
   id="Logotipos"
   version="1.1"
   viewBox="0 0 500 500"
   sodipodi:docname="logotipo-vertebrai--horizontal-colorido.svg"
   width="500"
   height="500"
   inkscape:version="1.4 (86a8ad7, 2024-10-11)"
   xmlns:inkscape="http://www.inkscape.org/namespaces/inkscape"
   xmlns:sodipodi="http://sodipodi.sourceforge.net/DTD/sodipodi-0.dtd"
   xmlns:xlink="http://www.w3.org/1999/xlink"
   xmlns="http://www.w3.org/2000/svg"
   xmlns:svg="http://www.w3.org/2000/svg">
  <sodipodi:namedview
     id="namedview131"
     pagecolor="#ffffff"
     bordercolor="#000000"
     borderopacity="0.25"
     inkscape:showpageshadow="2"
     inkscape:pageopacity="0.0"
     inkscape:pagecheckerboard="0"
     inkscape:deskcolor="#d1d1d1"
     inkscape:zoom="0.78992994"
     inkscape:cx="631.06863"
     inkscape:cy="322.18047"
     inkscape:window-width="2560"
     inkscape:window-height="991"
     inkscape:window-x="-9"
     inkscape:window-y="-9"
     inkscape:window-maximized="1"
     inkscape:current-layer="Logo_Branco_Vertical" />
  <defs
     id="defs6">
    <style
       id="style1">
      .cls-1 {
        fill: #168598;
      }

      .cls-1, .cls-2, .cls-3, .cls-4, .cls-5, .cls-6, .cls-7, .cls-8, .cls-9, .cls-10, .cls-11, .cls-12, .cls-13, .cls-14, .cls-15, .cls-16, .cls-17, .cls-18, .cls-19, .cls-20, .cls-21, .cls-22, .cls-23, .cls-24, .cls-25, .cls-26, .cls-27, .cls-28, .cls-29, .cls-30, .cls-31 {
        stroke-width: 0px;
      }

      .cls-2 {
        fill: url(#Gradiente_sem_nome_143-8);
      }

      .cls-3 {
        fill: url(#Gradiente_sem_nome_143-18);
      }

      .cls-4 {
        fill: url(#Gradiente_sem_nome_143-14);
      }

      .cls-5 {
        fill: url(#Gradiente_sem_nome_143-19);
      }

      .cls-6 {
        fill: url(#Gradiente_sem_nome_143-24);
      }

      .cls-7 {
        fill: url(#Gradiente_sem_nome_143-3);
      }

      .cls-8 {
        fill: url(#Gradiente_sem_nome_143-9);
      }

      .cls-9 {
        fill: url(#Gradiente_sem_nome_143-21);
      }

      .cls-10 {
        fill: #161616;
      }

      .cls-11 {
        fill: url(#Gradiente_sem_nome_143-13);
      }

      .cls-12 {
        fill: url(#Gradiente_sem_nome_143-10);
      }

      .cls-13 {
        fill: url(#Gradiente_sem_nome_143-28);
      }

      .cls-14 {
        fill: url(#Gradiente_sem_nome_143-12);
      }

      .cls-15 {
        fill: url(#Gradiente_sem_nome_143-23);
      }

      .cls-16 {
        fill: url(#Gradiente_sem_nome_143-5);
      }

      .cls-17 {
        fill: url(#Gradiente_sem_nome_143-6);
      }

      .cls-18 {
        fill: url(#Gradiente_sem_nome_143-26);
      }

      .cls-19 {
        fill: url(#Gradiente_sem_nome_143);
      }

      .cls-20 {
        fill: url(#Gradiente_sem_nome_143-20);
      }

      .cls-21 {
        fill: url(#Gradiente_sem_nome_143-16);
      }

      .cls-22 {
        fill: #fff;
      }

      .cls-23 {
        fill: url(#Gradiente_sem_nome_143-15);
      }

      .cls-24 {
        fill: url(#Gradiente_sem_nome_143-22);
      }

      .cls-25 {
        fill: url(#Gradiente_sem_nome_143-4);
      }

      .cls-26 {
        fill: url(#Gradiente_sem_nome_143-11);
      }

      .cls-27 {
        fill: url(#Gradiente_sem_nome_143-7);
      }

      .cls-28 {
        fill: url(#Gradiente_sem_nome_143-2);
      }

      .cls-29 {
        fill: url(#Gradiente_sem_nome_143-27);
      }

      .cls-30 {
        fill: url(#Gradiente_sem_nome_143-17);
      }

      .cls-31 {
        fill: url(#Gradiente_sem_nome_143-25);
      }
    </style>
    <linearGradient
       id="Gradiente_sem_nome_143"
       data-name="Gradiente sem nome 143"
       x1="-10.33"
       y1="126.49"
       x2="300.57001"
       y2="138.87"
       gradientUnits="userSpaceOnUse">
      <stop
         offset="0"
         stop-color="#00997b"
         id="stop1" />
      <stop
         offset=".12"
         stop-color="#039e84"
         id="stop2" />
      <stop
         offset=".32"
         stop-color="#0eab9d"
         id="stop3" />
      <stop
         offset=".57"
         stop-color="#1ec1c5"
         id="stop4" />
      <stop
         offset=".87"
         stop-color="#0099a4"
         id="stop5" />
      <stop
         offset=".99"
         stop-color="#007585"
         id="stop6" />
    </linearGradient>
    <linearGradient
       id="Gradiente_sem_nome_143-2"
       data-name="Gradiente sem nome 143"
       x1="-11.23"
       y1="148.92"
       x2="299.67001"
       y2="161.3"
       xlink:href="#Gradiente_sem_nome_143" />
    <linearGradient
       id="Gradiente_sem_nome_143-3"
       data-name="Gradiente sem nome 143"
       x1="-9.4700003"
       y1="104.8"
       x2="301.42999"
       y2="117.18"
       xlink:href="#Gradiente_sem_nome_143" />
    <linearGradient
       id="Gradiente_sem_nome_143-4"
       data-name="Gradiente sem nome 143"
       x1="-12.1"
       y1="170.86"
       x2="298.79999"
       y2="183.24001"
       xlink:href="#Gradiente_sem_nome_143" />
    <linearGradient
       id="Gradiente_sem_nome_143-5"
       data-name="Gradiente sem nome 143"
       x1="-8.6400003"
       y1="83.910004"
       x2="302.26001"
       y2="96.290001"
       xlink:href="#Gradiente_sem_nome_143" />
    <linearGradient
       id="Gradiente_sem_nome_143-6"
       data-name="Gradiente sem nome 143"
       x1="-12.88"
       y1="190.46001"
       x2="298.01999"
       y2="202.84"
       xlink:href="#Gradiente_sem_nome_143" />
    <linearGradient
       id="Gradiente_sem_nome_143-7"
       data-name="Gradiente sem nome 143"
       x1="-13.67"
       y1="210.37"
       x2="297.23001"
       y2="222.75"
       xlink:href="#Gradiente_sem_nome_143" />
    <linearGradient
       id="Gradiente_sem_nome_143-8"
       data-name="Gradiente sem nome 143"
       x1="-7.8000002"
       y1="62.77"
       x2="303.10001"
       y2="75.150002"
       xlink:href="#Gradiente_sem_nome_143" />
    <linearGradient
       id="Gradiente_sem_nome_143-9"
       data-name="Gradiente sem nome 143"
       x1="-14.39"
       y1="228.28999"
       x2="296.51001"
       y2="240.67"
       xlink:href="#Gradiente_sem_nome_143" />
    <linearGradient
       id="Gradiente_sem_nome_143-10"
       data-name="Gradiente sem nome 143"
       x1="-7.0300002"
       y1="43.580002"
       x2="303.87"
       y2="55.959999"
       xlink:href="#Gradiente_sem_nome_143" />
    <linearGradient
       id="Gradiente_sem_nome_143-11"
       data-name="Gradiente sem nome 143"
       x1="-6.3899999"
       y1="27.370001"
       x2="304.51001"
       y2="39.75"
       xlink:href="#Gradiente_sem_nome_143" />
    <linearGradient
       id="Gradiente_sem_nome_143-12"
       data-name="Gradiente sem nome 143"
       x1="-14.91"
       y1="241.37"
       x2="295.98999"
       y2="253.75"
       xlink:href="#Gradiente_sem_nome_143" />
    <linearGradient
       id="Gradiente_sem_nome_143-13"
       data-name="Gradiente sem nome 143"
       x1="-34.919998"
       y1="66.849998"
       x2="282.85999"
       y2="203.03999"
       xlink:href="#Gradiente_sem_nome_143" />
    <linearGradient
       id="Gradiente_sem_nome_143-14"
       data-name="Gradiente sem nome 143"
       x1="-27.85"
       y1="50.360001"
       x2="289.92999"
       y2="186.55"
       xlink:href="#Gradiente_sem_nome_143" />
    <linearGradient
       id="Gradiente_sem_nome_143-15"
       data-name="Gradiente sem nome 143"
       x1="-1026.0699"
       y1="-12.78"
       x2="-223.24001"
       y2="19.190001"
       xlink:href="#Gradiente_sem_nome_143" />
    <linearGradient
       id="Gradiente_sem_nome_143-16"
       data-name="Gradiente sem nome 143"
       x1="-1028.38"
       y1="45.150002"
       x2="-225.53999"
       y2="77.129997"
       xlink:href="#Gradiente_sem_nome_143" />
    <linearGradient
       id="Gradiente_sem_nome_143-17"
       data-name="Gradiente sem nome 143"
       x1="-1023.84"
       y1="-68.769997"
       x2="-221.00999"
       y2="-36.799999"
       xlink:href="#Gradiente_sem_nome_143" />
    <linearGradient
       id="Gradiente_sem_nome_143-18"
       data-name="Gradiente sem nome 143"
       x1="-1030.63"
       y1="101.79"
       x2="-227.8"
       y2="133.75999"
       xlink:href="#Gradiente_sem_nome_143" />
    <linearGradient
       id="Gradiente_sem_nome_143-19"
       data-name="Gradiente sem nome 143"
       x1="-1021.69"
       y1="-122.72"
       x2="-218.86"
       y2="-90.75"
       xlink:href="#Gradiente_sem_nome_143" />
    <linearGradient
       id="Gradiente_sem_nome_143-20"
       data-name="Gradiente sem nome 143"
       x1="-1032.65"
       y1="152.42"
       x2="-229.81"
       y2="184.39"
       xlink:href="#Gradiente_sem_nome_143" />
    <linearGradient
       id="Gradiente_sem_nome_143-21"
       data-name="Gradiente sem nome 143"
       x1="-1034.7"
       y1="203.84"
       x2="-231.86"
       y2="235.81"
       xlink:href="#Gradiente_sem_nome_143" />
    <linearGradient
       id="Gradiente_sem_nome_143-22"
       data-name="Gradiente sem nome 143"
       x1="-1019.52"
       y1="-177.31"
       x2="-216.67999"
       y2="-145.34"
       xlink:href="#Gradiente_sem_nome_143" />
    <linearGradient
       id="Gradiente_sem_nome_143-23"
       data-name="Gradiente sem nome 143"
       x1="-1036.54"
       y1="250.11"
       x2="-233.71001"
       y2="282.07999"
       xlink:href="#Gradiente_sem_nome_143" />
    <linearGradient
       id="Gradiente_sem_nome_143-24"
       data-name="Gradiente sem nome 143"
       x1="-1017.55"
       y1="-226.88"
       x2="-214.71001"
       y2="-194.91"
       xlink:href="#Gradiente_sem_nome_143" />
    <linearGradient
       id="Gradiente_sem_nome_143-25"
       data-name="Gradiente sem nome 143"
       x1="-1015.88"
       y1="-268.72"
       x2="-213.03999"
       y2="-236.75"
       xlink:href="#Gradiente_sem_nome_143" />
    <linearGradient
       id="Gradiente_sem_nome_143-26"
       data-name="Gradiente sem nome 143"
       x1="-1037.89"
       y1="283.88"
       x2="-235.05"
       y2="315.85999"
       xlink:href="#Gradiente_sem_nome_143" />
    <linearGradient
       id="Gradiente_sem_nome_143-27"
       data-name="Gradiente sem nome 143"
       x1="-1089.5601"
       y1="-166.77"
       x2="-268.97"
       y2="184.91"
       xlink:href="#Gradiente_sem_nome_143" />
    <linearGradient
       id="Gradiente_sem_nome_143-28"
       data-name="Gradiente sem nome 143"
       x1="-1071.3101"
       y1="-209.37"
       x2="-250.71001"
       y2="142.31"
       xlink:href="#Gradiente_sem_nome_143" />
  </defs>
  <g
     id="Logo_Branco_Vertical"
     data-name="Logo Branco Vertical"
     transform="translate(-1117.1488,973.92457)">
    <g
       id="g59"
       transform="matrix(0.7091882,0,0,0.7091882,-562.94629,-762.12291)">
      <g
         id="Coluna-3"
         data-name="Coluna">
        <path
           class="cls-22"
           d="m 2720.9,31.76 c -0.03,11.89 -8.78,20.88 -20.1,20.63 -11.75,-0.25 -20.45,-8.96 -20.44,-20.46 0.01,-11.44 9.04,-20.67 20.21,-20.64 11.44,0.02 20.35,9 20.33,20.47 z"
           id="path48" />
        <path
           class="cls-22"
           d="m 2715.42,72.01 c 11.29,-0.04 20.43,9.16 20.34,20.46 -0.1,11.49 -8.95,20.17 -20.57,20.14 -11.84,-0.02 -20.03,-8.39 -19.99,-20.44 0.03,-11.99 8.19,-20.12 20.22,-20.16 z"
           id="path49" />
        <path
           class="cls-22"
           d="m 2689.08,-7.97 c -10.75,0.08 -18.89,-7.83 -19.17,-18.63 -0.25,-9.77 8.53,-18.57 18.79,-18.47 12.09,0.11 18.84,8.12 19.03,18.12 0.22,11.59 -7.94,18.98 -18.66,18.98 z"
           id="path50" />
        <path
           class="cls-22"
           d="m 2746.31,151.85 c -0.08,10.68 -7.73,18.12 -18.67,18.18 -11.1,0.06 -18.46,-8.47 -18.6,-21.54 -0.09,-8.14 10.37,-15.87 21.28,-15.74 8.15,0.1 16.07,9.56 16,19.1 z"
           id="path51" />
        <path
           class="cls-22"
           d="m 2686.38,-65.52 c -9.66,0 -16.6,-7.27 -16.59,-17.36 0,-8.98 7.73,-16.31 17.19,-16.33 9.89,-0.02 16.72,6.98 16.77,17.17 0.04,9.78 -7.04,16.52 -17.36,16.52 z"
           id="path52" />
        <path
           class="cls-22"
           d="m 2730.25,220.63 c -10.33,0.02 -16.97,-6.85 -16.85,-17.45 0.1,-8.99 7.43,-16.18 16.56,-16.23 9.83,-0.06 17.3,7.17 17.29,16.72 0,9.83 -7.12,16.93 -17,16.95 z"
           id="path53" />
        <path
           class="cls-22"
           d="m 2740.49,257.15 c -0.08,9.03 -6.2,15.05 -15.26,15.01 -8.54,-0.04 -15.02,-6.69 -15.04,-15.42 -0.02,-9.2 6.73,-15.57 16.27,-15.37 7.97,0.17 14.1,7.07 14.02,15.78 z"
           id="path54" />
        <path
           class="cls-22"
           d="m 2709.37,-137.99 c -0.08,8.61 -6.75,15.08 -15.38,14.9 -8.55,-0.17 -14.86,-6.76 -14.88,-15.53 -0.02,-8.93 7.06,-15.52 16.39,-15.25 7.94,0.23 13.95,7.11 13.87,15.87 z"
           id="path55" />
        <path
           class="cls-22"
           d="m 2702.05,317.08 c -7.49,-0.01 -13.46,-5.88 -13.55,-13.33 -0.1,-7.77 5.82,-13.57 13.8,-13.52 7.91,0.05 13.57,5.52 13.54,13.1 -0.03,7.75 -6.05,13.76 -13.78,13.75 z"
           id="path56" />
        <path
           class="cls-22"
           d="m 2708.62,-175.75 c -7.82,-0.09 -13.4,-6.04 -13.2,-14.07 0.2,-7.59 6.02,-12.94 13.88,-12.74 7.6,0.19 13.4,6.05 13.36,13.5 -0.05,7.82 -5.94,13.41 -14.04,13.31 z"
           id="path57" />
        <path
           class="cls-22"
           d="m 2742.71,-231.88 c 0.04,7.01 -5.41,12.52 -12.25,12.41 -6.49,-0.1 -11.9,-5.68 -11.83,-12.21 0.07,-6.42 5.77,-11.99 12.21,-11.94 6.01,0.05 11.85,5.81 11.88,11.73 z"
           id="path58" />
        <path
           class="cls-22"
           d="m 2677.77,349.26 c -6.94,0.09 -12.03,-4.41 -12.26,-10.83 -0.25,-6.97 4.86,-12.3 11.99,-12.5 6.46,-0.18 11.88,5.22 11.99,11.94 0.11,6.44 -4.9,11.3 -11.73,11.38 z"
           id="path59" />
      </g>
      <path
         id="Cerebro_Frente-3"
         data-name="Cerebro Frente"
         class="cls-22"
         d="m 2661.14,25.83 c -27.01,-93.95 -14.93,-160.58 13.77,-207.73 -22.62,-7.09 -48.71,-6.22 -73.36,4.36 -15.81,6.79 -29.11,16.78 -39.39,28.69 0.1,-0.03 0.21,-0.06 0.32,-0.06 0.62,0 1.12,0.51 1.11,1.13 l -0.04,4.56 c 0,0.62 -0.51,1.11 -1.12,1.11 h -0.01 c -0.62,0 -1.12,-0.51 -1.11,-1.13 l 0.04,-4.56 c 0,0 0.02,-0.08 0.02,-0.12 -9.24,10.96 -15.96,23.47 -19.68,36.63 -30.89,-5.91 -65.65,4.21 -91.34,29.89 -20.59,20.59 -31.19,47.01 -31.53,72.6 h 4.28 c 0.62,0 1.12,0.5 1.12,1.12 0,0.62 -0.5,1.12 -1.12,1.12 h -4.29 c 0.13,12.2 2.59,24.16 7.44,35.16 -8.94,9.55 -15.76,21.17 -20.13,33.98 h 3.13 c 0.62,0 1.12,0.5 1.12,1.12 0,0.62 -0.5,1.12 -1.12,1.12 h -3.86 c -5.57,17.69 -6.47,37.51 -1.62,57.35 h 2.22 c 0.62,0 1.12,0.5 1.12,1.12 0,0.62 -0.5,1.12 -1.12,1.12 h -1.65 c 0.32,1.19 0.64,2.37 1,3.56 16.05,53.15 67.89,84.52 115.79,70.05 1.47,-0.44 2.85,-1.04 4.27,-1.55 10.33,31.33 38.47,57.4 75.71,65.86 4.38,0.99 8.74,1.69 13.08,2.15 -0.09,-0.16 -0.16,-0.35 -0.16,-0.55 v -4.56 c 0,-0.62 0.5,-1.12 1.12,-1.12 0.62,0 1.12,0.5 1.12,1.12 v 4.56 c 0,0.27 -0.11,0.51 -0.27,0.71 27.2,2.4 53.06,-5.49 72.37,-20.65 6.21,-51.55 0.43,-121.94 -27.23,-218.16 z m -50.07,-134.39 c 5.26,0 9.53,4.27 9.53,9.53 0,5.26 -4.27,9.53 -9.53,9.53 -5.26,0 -9.53,-4.27 -9.53,-9.53 0,-5.26 4.27,-9.53 9.53,-9.53 z m 7.5,100.87 c 0,5.26 -4.27,9.53 -9.53,9.53 -5.26,0 -9.53,-4.27 -9.53,-9.53 0,-5.26 4.27,-9.53 9.53,-9.53 5.26,0 9.53,4.27 9.53,9.53 z m -24.3,-91.21 h 0.01 l 4.55,0.04 c 0.62,0 1.12,0.51 1.11,1.13 0,0.62 -0.51,1.11 -1.12,1.11 h -0.01 l -4.55,-0.04 c -0.62,0 -1.12,-0.51 -1.11,-1.13 0,-0.62 0.51,-1.11 1.12,-1.11 z m -33.01,-39.79 c 0,-0.62 0.51,-1.11 1.12,-1.11 v 0 c 0.62,0 1.12,0.51 1.12,1.13 l -0.04,4.55 c 0,0.62 -0.51,1.11 -1.12,1.11 v 0 c -0.62,0 -1.12,-0.51 -1.12,-1.13 z m -0.08,9.1 c 0,-0.62 0.51,-1.11 1.12,-1.11 h 0.01 c 0.62,0 1.12,0.51 1.11,1.13 l -0.04,4.56 c 0,0.62 -0.51,1.11 -1.12,1.11 h -0.01 c -0.62,0 -1.12,-0.51 -1.11,-1.13 z m -0.09,9.11 c 0,-0.62 0.41,-1.11 1.14,-1.11 0.62,0 1.12,0.51 1.11,1.13 l -0.04,4.55 c 0,0.62 -0.51,1.11 -1.12,1.11 h -0.01 c -0.62,0 -1.12,-0.51 -1.11,-1.13 l 0.04,-4.55 z m -0.08,9.11 c 0,-0.62 0.51,-1.11 1.12,-1.11 v 0 c 0.62,0 1.12,0.51 1.12,1.13 l -0.04,4.55 c 0,0.62 -0.51,1.11 -1.12,1.11 v 0 c -0.62,0 -1.12,-0.51 -1.12,-1.13 z m -5.83,102.56 h 4.55 c 0.62,0 1.12,0.5 1.12,1.12 0,0.62 -0.5,1.12 -1.12,1.12 h -4.55 c -0.62,0 -1.12,-0.5 -1.12,-1.12 0,-0.62 0.5,-1.12 1.12,-1.12 z m -9.11,0 h 4.56 c 0.62,0 1.12,0.5 1.12,1.12 0,0.62 -0.5,1.12 -1.12,1.12 h -4.56 c -0.62,0 -1.12,-0.5 -1.12,-1.12 0,-0.62 0.5,-1.12 1.12,-1.12 z m -20.54,132.11 c 0,0.62 -0.5,1.12 -1.12,1.12 h -4.55 c -0.62,0 -1.12,-0.5 -1.12,-1.12 0,-0.62 0.5,-1.12 1.12,-1.12 h 4.55 c 0.62,0 1.12,0.5 1.12,1.12 z m -6.79,-132.11 h 4.55 c 0.62,0 1.12,0.5 1.12,1.12 0,0.62 -0.5,1.12 -1.12,1.12 h -4.55 c -0.62,0 -1.12,-0.5 -1.12,-1.12 0,-0.62 0.5,-1.12 1.12,-1.12 z m -2.31,132.11 c 0,0.62 -0.5,1.12 -1.12,1.12 h -4.55 c -0.62,0 -1.12,-0.5 -1.12,-1.12 0,-0.62 0.5,-1.12 1.12,-1.12 h 4.55 c 0.62,0 1.12,0.5 1.12,1.12 z m -6.79,-132.11 h 4.55 c 0.62,0 1.12,0.5 1.12,1.12 0,0.62 -0.5,1.12 -1.12,1.12 h -4.55 c -0.62,0 -1.12,-0.5 -1.12,-1.12 0,-0.62 0.5,-1.12 1.12,-1.12 z m -21.96,-72.12 h 0.65 c 0.56,-4.73 4.54,-8.41 9.42,-8.41 5.26,0 9.53,4.27 9.53,9.53 0,5.26 -4.27,9.53 -9.53,9.53 -4.88,0 -8.86,-3.68 -9.42,-8.41 h -0.65 c -0.62,0 -1.12,-0.5 -1.12,-1.12 0,-0.62 0.5,-1.12 1.12,-1.12 z m 18.53,73.24 c 0,0.62 -0.5,1.12 -1.12,1.12 h -4.56 c -0.62,0 -1.12,-0.5 -1.12,-1.12 0,-0.62 0.5,-1.12 1.12,-1.12 h 4.56 c 0.62,0 1.12,0.5 1.12,1.12 z m -9.11,0 c 0,0.62 -0.5,1.12 -1.12,1.12 h -4.55 c -0.62,0 -1.12,-0.5 -1.12,-1.12 0,-0.62 0.5,-1.12 1.12,-1.12 h 4.55 c 0.62,0 1.12,0.5 1.12,1.12 z m -9.11,0 c 0,0.62 -0.5,1.12 -1.12,1.12 h -4.55 c -0.62,0 -1.12,-0.5 -1.12,-1.12 0,-0.62 0.5,-1.12 1.12,-1.12 h 4.55 c 0.62,0 1.12,0.5 1.12,1.12 z m -9.42,-73.24 h 4.55 c 0.62,0 1.12,0.5 1.12,1.12 0,0.62 -0.5,1.12 -1.12,1.12 h -4.55 c -0.62,0 -1.12,-0.5 -1.12,-1.12 0,-0.62 0.5,-1.12 1.12,-1.12 z m 0.31,73.24 c 0,0.62 -0.5,1.12 -1.12,1.12 h -4.56 c -0.62,0 -1.12,-0.5 -1.12,-1.12 0,-0.62 0.5,-1.12 1.12,-1.12 h 4.56 c 0.62,0 1.12,0.5 1.12,1.12 z m -9.42,-73.24 h 4.55 c 0.62,0 1.12,0.5 1.12,1.12 0,0.62 -0.5,1.12 -1.12,1.12 h -4.55 c -0.62,0 -1.12,-0.5 -1.12,-1.12 0,-0.62 0.5,-1.12 1.12,-1.12 z m 0.31,73.24 c 0,0.62 -0.5,1.12 -1.12,1.12 h -4.55 c -0.62,0 -1.12,-0.5 -1.12,-1.12 0,-0.62 0.5,-1.12 1.12,-1.12 h 4.55 c 0.62,0 1.12,0.5 1.12,1.12 z m -9.42,-73.24 h 4.56 c 0.62,0 1.12,0.5 1.12,1.12 0,0.62 -0.5,1.12 -1.12,1.12 h -4.56 c -0.62,0 -1.12,-0.5 -1.12,-1.12 0,-0.62 0.5,-1.12 1.12,-1.12 z m -5.37,74.37 c -0.62,0 -1.12,-0.5 -1.12,-1.12 0,-0.62 0.5,-1.12 1.12,-1.12 h 4.55 c 0.62,0 1.12,0.5 1.12,1.12 0,0.62 -0.5,1.12 -1.12,1.12 z m 2.62,70.26 c 0,5.26 -4.27,9.53 -9.53,9.53 -5.26,0 -9.53,-4.27 -9.53,-9.53 0,-5.26 4.27,-9.53 9.53,-9.53 5.26,0 9.53,4.27 9.53,9.53 z m -6.36,-144.63 h 4.55 c 0.62,0 1.12,0.5 1.12,1.12 0,0.62 -0.5,1.12 -1.12,1.12 h -4.55 c -0.62,0 -1.12,-0.5 -1.12,-1.12 0,-0.62 0.5,-1.12 1.12,-1.12 z m -5.37,72.12 h 4.55 c 0.62,0 1.12,0.5 1.12,1.12 0,0.62 -0.5,1.12 -1.12,1.12 h -4.55 c -0.62,0 -1.12,-0.5 -1.12,-1.12 0,-0.62 0.5,-1.12 1.12,-1.12 z m -9.11,0 h 4.55 c 0.62,0 1.12,0.5 1.12,1.12 0,0.62 -0.5,1.12 -1.12,1.12 h -4.55 c -0.62,0 -1.12,-0.5 -1.12,-1.12 0,-0.62 0.5,-1.12 1.12,-1.12 z m -9.11,0 h 4.56 c 0.62,0 1.12,0.5 1.12,1.12 0,0.62 -0.5,1.12 -1.12,1.12 h -4.56 c -0.62,0 -1.12,-0.5 -1.12,-1.12 0,-0.62 0.5,-1.12 1.12,-1.12 z m -12.55,133.23 h -4.56 c -0.62,0 -1.12,-0.5 -1.12,-1.12 0,-0.62 0.5,-1.12 1.12,-1.12 h 4.56 c 0.62,0 1.12,0.5 1.12,1.12 0,0.62 -0.5,1.12 -1.12,1.12 z m -1.3,-59.59 c -0.62,0 -1.12,-0.5 -1.12,-1.12 0,-0.62 0.5,-1.12 1.12,-1.12 h 4.56 c 0.62,0 1.12,0.5 1.12,1.12 0,0.62 -0.5,1.12 -1.12,1.12 z m 10.41,59.59 h -4.55 c -0.62,0 -1.12,-0.5 -1.12,-1.12 0,-0.62 0.5,-1.12 1.12,-1.12 h 4.55 c 0.62,0 1.12,0.5 1.12,1.12 0,0.62 -0.5,1.12 -1.12,1.12 z m -1.3,-59.59 c -0.62,0 -1.12,-0.5 -1.12,-1.12 0,-0.62 0.5,-1.12 1.12,-1.12 h 4.55 c 0.62,0 1.12,0.5 1.12,1.12 0,0.62 -0.5,1.12 -1.12,1.12 z m 10.4,59.59 h -4.55 c -0.62,0 -1.12,-0.5 -1.12,-1.12 0,-0.62 0.5,-1.12 1.12,-1.12 h 4.55 c 0.62,0 1.12,0.5 1.12,1.12 0,0.62 -0.5,1.12 -1.12,1.12 z m -1.29,-59.59 c -0.62,0 -1.12,-0.5 -1.12,-1.12 0,-0.62 0.5,-1.12 1.12,-1.12 h 4.55 c 0.62,0 1.12,0.5 1.12,1.12 0,0.62 -0.5,1.12 -1.12,1.12 z m 4.73,58.47 c 0,-0.62 0.5,-1.12 1.12,-1.12 h 4.55 c 0.62,0 1.12,0.5 1.12,1.12 0,0.62 -0.5,1.12 -1.12,1.12 h -4.55 c -0.62,0 -1.12,-0.5 -1.12,-1.12 z m 8.34,57.21 h -4.55 c -0.62,0 -1.12,-0.5 -1.12,-1.12 0,-0.62 0.5,-1.12 1.12,-1.12 h 4.55 c 0.62,0 1.12,0.5 1.12,1.12 0,0.62 -0.5,1.12 -1.12,1.12 z m 0.77,-57.21 c 0,-0.62 0.5,-1.12 1.12,-1.12 h 4.55 c 0.62,0 1.12,0.5 1.12,1.12 0,0.62 -0.5,1.12 -1.12,1.12 h -4.55 c -0.62,0 -1.12,-0.5 -1.12,-1.12 z m 8.34,57.21 h -4.56 c -0.62,0 -1.12,-0.5 -1.12,-1.12 0,-0.62 0.5,-1.12 1.12,-1.12 h 4.56 c 0.62,0 1.12,0.5 1.12,1.12 0,0.62 -0.5,1.12 -1.12,1.12 z m 0.76,-57.21 c 0,-0.62 0.5,-1.12 1.12,-1.12 h 4.56 c 0.62,0 1.12,0.5 1.12,1.12 0,0.62 -0.5,1.12 -1.12,1.12 h -4.56 c -0.62,0 -1.12,-0.5 -1.12,-1.12 z m 8.35,57.21 h -4.55 c -0.62,0 -1.12,-0.5 -1.12,-1.12 0,-0.62 0.5,-1.12 1.12,-1.12 h 4.55 c 0.62,0 1.12,0.5 1.12,1.12 0,0.62 -0.5,1.12 -1.12,1.12 z m 0.77,-57.21 c 0,-0.62 0.5,-1.12 1.12,-1.12 h 4.55 c 0.62,0 1.12,0.5 1.12,1.12 0,0.62 -0.5,1.12 -1.12,1.12 h -4.55 c -0.62,0 -1.12,-0.5 -1.12,-1.12 z m 8.34,57.21 h -4.55 c -0.62,0 -1.12,-0.5 -1.12,-1.12 0,-0.62 0.5,-1.12 1.12,-1.12 h 4.55 c 0.62,0 1.12,0.5 1.12,1.12 0,0.62 -0.5,1.12 -1.12,1.12 z m 0.76,-57.21 c 0,-0.62 0.5,-1.12 1.12,-1.12 h 4.55 c 0.62,0 1.12,0.5 1.12,1.12 0,0.62 -0.5,1.12 -1.12,1.12 h -4.55 c -0.62,0 -1.12,-0.5 -1.12,-1.12 z m 8.35,57.21 h -4.55 c -0.62,0 -1.12,-0.5 -1.12,-1.12 0,-0.62 0.5,-1.12 1.12,-1.12 h 4.55 c 0.62,0 1.12,0.5 1.12,1.12 0,0.62 -0.5,1.12 -1.12,1.12 z m 0.76,-57.21 c 0,-0.62 0.5,-1.12 1.12,-1.12 h 4.56 c 0.62,0 1.12,0.5 1.12,1.12 0,0.62 -0.5,1.12 -1.12,1.12 h -4.56 c -0.62,0 -1.12,-0.5 -1.12,-1.12 z m 8.35,57.21 h -4.55 c -0.62,0 -1.12,-0.5 -1.12,-1.12 0,-0.62 0.5,-1.12 1.12,-1.12 h 4.55 c 0.62,0 1.12,0.5 1.12,1.12 0,0.62 -0.5,1.12 -1.12,1.12 z m 0.76,-57.21 c 0,-0.62 0.5,-1.12 1.12,-1.12 h 4.55 c 0.62,0 1.12,0.5 1.12,1.12 0,0.62 -0.5,1.12 -1.12,1.12 h -4.55 c -0.62,0 -1.12,-0.5 -1.12,-1.12 z m 8.35,57.21 h -4.56 c -0.62,0 -1.12,-0.5 -1.12,-1.12 0,-0.62 0.5,-1.12 1.12,-1.12 h 4.56 c 0.62,0 1.12,0.5 1.12,1.12 0,0.62 -0.5,1.12 -1.12,1.12 z m 0.76,-57.21 c 0,-0.62 0.5,-1.12 1.12,-1.12 h 4.55 c 0.62,0 1.12,0.5 1.12,1.12 0,0.62 -0.5,1.12 -1.12,1.12 h -4.55 c -0.62,0 -1.12,-0.5 -1.12,-1.12 z m 16.3,65.62 c -4.88,0 -8.86,-3.68 -9.42,-8.41 h -3.09 c -0.62,0 -1.12,-0.5 -1.12,-1.12 0,-0.62 0.5,-1.12 1.12,-1.12 h 3.09 c 0.56,-4.73 4.54,-8.41 9.42,-8.41 5.26,0 9.53,4.27 9.53,9.53 0,5.26 -4.27,9.53 -9.53,9.53 z m 9.92,-196.61 c 0,-0.62 0.5,-1.12 1.12,-1.12 h 4.55 c 0.62,0 1.12,0.5 1.12,1.12 0,0.62 -0.5,1.12 -1.12,1.12 h -4.55 c -0.62,0 -1.12,-0.5 -1.12,-1.12 z m 6.79,132.11 h -4.56 c -0.62,0 -1.12,-0.5 -1.12,-1.12 0,-0.62 0.5,-1.12 1.12,-1.12 h 4.56 c 0.62,0 1.12,0.5 1.12,1.12 0,0.62 -0.5,1.12 -1.12,1.12 z m 2.32,-132.11 c 0,-0.62 0.5,-1.12 1.12,-1.12 h 4.55 c 0.62,0 1.12,0.5 1.12,1.12 0,0.62 -0.5,1.12 -1.12,1.12 h -4.55 c -0.62,0 -1.12,-0.5 -1.12,-1.12 z m 6.79,132.11 h -4.55 c -0.62,0 -1.12,-0.5 -1.12,-1.12 0,-0.62 0.5,-1.12 1.12,-1.12 h 4.55 c 0.62,0 1.12,0.5 1.12,1.12 0,0.62 -0.5,1.12 -1.12,1.12 z m 9.11,0 h -4.55 c -0.62,0 -1.12,-0.5 -1.12,-1.12 0,-0.62 0.5,-1.12 1.12,-1.12 h 4.55 c 0.62,0 1.12,0.5 1.12,1.12 0,0.62 -0.5,1.12 -1.12,1.12 z m 2.17,-4.62 c 0,0.62 -0.5,1.12 -1.12,1.12 -0.62,0 -1.12,-0.5 -1.12,-1.12 v -4.56 c 0,-0.62 0.5,-1.12 1.12,-1.12 0.62,0 1.12,0.5 1.12,1.12 z m 0,-9.11 c 0,0.62 -0.5,1.12 -1.12,1.12 -0.62,0 -1.12,-0.5 -1.12,-1.12 v -4.55 c 0,-0.62 0.5,-1.12 1.12,-1.12 0.62,0 1.12,0.5 1.12,1.12 z m 0,-9.11 c 0,0.62 -0.5,1.12 -1.12,1.12 -0.62,0 -1.12,-0.5 -1.12,-1.12 v -4.55 c 0,-0.62 0.5,-1.12 1.12,-1.12 0.62,0 1.12,0.5 1.12,1.12 z m 0,-9.11 c 0,0.62 -0.5,1.12 -1.12,1.12 -0.62,0 -1.12,-0.5 -1.12,-1.12 v -4.55 c 0,-0.62 0.5,-1.12 1.12,-1.12 0.62,0 1.12,0.5 1.12,1.12 z m 0,-9.11 c 0,0.62 -0.5,1.12 -1.12,1.12 -0.62,0 -1.12,-0.5 -1.12,-1.12 V 78.8 c 0,-0.62 0.5,-1.12 1.12,-1.12 0.62,0 1.12,0.5 1.12,1.12 z m 0,-10.24 v 1.13 c 0,0.62 -0.5,1.12 -1.12,1.12 -0.62,0 -1.12,-0.5 -1.12,-1.12 v -1.13 c -4.73,-0.56 -8.41,-4.54 -8.41,-9.42 0,-5.26 4.27,-9.53 9.53,-9.53 5.26,0 9.53,4.27 9.53,9.53 0,4.88 -3.68,8.86 -8.41,9.42 z m 8.46,-170.06 H 2562 c -0.62,0 -1.12,-0.52 -1.11,-1.14 l 0.04,-4.18 c 0,-0.62 0.51,-1.11 1.12,-1.11 h 0.01 c 0.62,0 1.12,0.51 1.11,1.13 l -0.03,3.35 c 0.23,0.21 0.36,0.51 0.36,0.84 0,0.62 -0.51,1.11 -1.12,1.11 z m 6.48,90.38 h -4.55 c -0.62,0 -1.12,-0.5 -1.12,-1.12 0,-0.62 0.5,-1.12 1.12,-1.12 h 4.55 c 0.62,0 1.12,0.5 1.12,1.12 0,0.62 -0.5,1.12 -1.12,1.12 z m 2.64,-90.29 -4.55,-0.04 c -0.62,0 -1.12,-0.51 -1.11,-1.13 0,-0.62 0.51,-1.11 1.12,-1.11 h 0.01 l 4.55,0.04 c 0.62,0 1.12,0.51 1.11,1.13 0,0.62 -0.51,1.11 -1.12,1.11 z m 6.47,90.29 h -4.55 c -0.62,0 -1.12,-0.5 -1.12,-1.12 0,-0.62 0.5,-1.12 1.12,-1.12 h 4.55 c 0.62,0 1.12,0.5 1.12,1.12 0,0.62 -0.5,1.12 -1.12,1.12 z m 2.63,-90.21 -4.55,-0.04 c -0.62,0 -1.12,-0.51 -1.11,-1.13 0,-0.62 0.51,-1.11 1.12,-1.11 h 0.01 l 4.55,0.04 c 0.62,0 1.12,0.51 1.11,1.13 0,0.62 -0.51,1.11 -1.12,1.11 z m 6.48,90.21 h -4.55 c -0.62,0 -1.12,-0.5 -1.12,-1.12 0,-0.62 0.5,-1.12 1.12,-1.12 h 4.55 c 0.62,0 1.12,0.5 1.12,1.12 0,0.62 -0.5,1.12 -1.12,1.12 z m 2.63,-90.13 -4.55,-0.04 c -0.62,0 -1.12,-0.51 -1.11,-1.13 0,-0.62 0.51,-1.11 1.12,-1.11 h 0.01 l 4.55,0.04 c 0.62,0 1.12,0.51 1.11,1.13 0,0.62 -0.51,1.11 -1.12,1.11 z m 6.48,90.13 h -4.56 c -0.62,0 -1.12,-0.5 -1.12,-1.12 0,-0.62 0.5,-1.12 1.12,-1.12 h 4.56 c 0.62,0 1.12,0.5 1.12,1.12 0,0.62 -0.5,1.12 -1.12,1.12 z m 1.54,119.14 c 0,-5.26 4.27,-9.53 9.53,-9.53 5.26,0 9.45,4.2 9.52,9.41 0.32,0.2 0.55,0.54 0.55,0.94 0,0.48 -0.3,0.88 -0.72,1.04 -0.87,4.37 -4.72,7.67 -9.34,7.67 -5.26,0 -9.53,-4.27 -9.53,-9.53 z m 18.55,142.25 c 0,0.62 -0.5,1.12 -1.12,1.12 -0.62,0 -1.12,-0.5 -1.12,-1.12 v -4.56 c 0,-0.62 0.5,-1.12 1.12,-1.12 0.62,0 1.12,0.5 1.12,1.12 z m 0,-9.11 c 0,0.62 -0.5,1.12 -1.12,1.12 -0.62,0 -1.12,-0.5 -1.12,-1.12 v -4.55 c 0,-0.62 0.5,-1.12 1.12,-1.12 0.62,0 1.12,0.5 1.12,1.12 z m 0,-9.11 c 0,0.62 -0.5,1.12 -1.12,1.12 -0.62,0 -1.12,-0.5 -1.12,-1.12 v -4.55 c 0,-0.62 0.5,-1.12 1.12,-1.12 0.62,0 1.12,0.5 1.12,1.12 z m 0,-9.11 c 0,0.62 -0.5,1.12 -1.12,1.12 -0.62,0 -1.12,-0.5 -1.12,-1.12 v -4.55 c 0,-0.62 0.5,-1.12 1.12,-1.12 0.62,0 1.12,0.5 1.12,1.12 z m 0,-9.11 c 0,0.62 -0.5,1.12 -1.12,1.12 -0.62,0 -1.12,-0.5 -1.12,-1.12 v -4.56 c 0,-0.62 0.5,-1.12 1.12,-1.12 0.62,0 1.12,0.5 1.12,1.12 z m 0,-9.11 c 0,0.62 -0.5,1.12 -1.12,1.12 -0.62,0 -1.12,-0.5 -1.12,-1.12 v -4.55 c 0,-0.62 0.5,-1.12 1.12,-1.12 0.62,0 1.12,0.5 1.12,1.12 z m 0,-9.11 c 0,0.62 -0.5,1.12 -1.12,1.12 -0.62,0 -1.12,-0.5 -1.12,-1.12 v -4.55 c 0,-0.62 0.5,-1.12 1.12,-1.12 0.62,0 1.12,0.5 1.12,1.12 z m 0,-9.11 c 0,0.62 -0.5,1.12 -1.12,1.12 -0.62,0 -1.12,-0.5 -1.12,-1.12 v -4.55 c 0,-0.62 0.5,-1.12 1.12,-1.12 0.62,0 1.12,0.5 1.12,1.12 z m -0.98,-6.63 c -5.26,0 -9.53,-4.27 -9.53,-9.53 0,-5.26 4.27,-9.53 9.53,-9.53 5.26,0 9.53,4.27 9.53,9.53 0,5.26 -4.27,9.53 -9.53,9.53 z m 10.01,-69.91 h -4.56 c -0.62,0 -1.12,-0.5 -1.12,-1.12 0,-0.62 0.5,-1.12 1.12,-1.12 h 4.56 c 0.62,0 1.12,0.5 1.12,1.12 0,0.62 -0.5,1.12 -1.12,1.12 z m 9.11,0 h -4.55 c -0.62,0 -1.12,-0.5 -1.12,-1.12 0,-0.62 0.5,-1.12 1.12,-1.12 h 4.55 c 0.62,0 1.12,0.5 1.12,1.12 0,0.62 -0.5,1.12 -1.12,1.12 z m 9.11,0 h -4.55 c -0.62,0 -1.12,-0.5 -1.12,-1.12 0,-0.62 0.5,-1.12 1.12,-1.12 h 4.55 c 0.62,0 1.12,0.5 1.12,1.12 0,0.62 -0.5,1.12 -1.12,1.12 z m 9.11,0 h -4.55 c -0.62,0 -1.12,-0.5 -1.12,-1.12 0,-0.62 0.5,-1.12 1.12,-1.12 h 4.55 c 0.62,0 1.12,0.5 1.12,1.12 0,0.62 -0.5,1.12 -1.12,1.12 z m 9.11,0 h -4.55 c -0.62,0 -1.12,-0.5 -1.12,-1.12 0,-0.62 0.5,-1.12 1.12,-1.12 h 4.55 c 0.62,0 1.12,0.5 1.12,1.12 0,0.62 -0.5,1.12 -1.12,1.12 z m 9.11,0 h -4.56 c -0.62,0 -1.12,-0.5 -1.12,-1.12 0,-0.62 0.5,-1.12 1.12,-1.12 h 4.56 c 0.62,0 1.12,0.5 1.12,1.12 0,0.62 -0.5,1.12 -1.12,1.12 z m 9.11,0 h -4.55 c -0.62,0 -1.12,-0.5 -1.12,-1.12 0,-0.62 0.5,-1.12 1.12,-1.12 h 4.55 c 0.62,0 1.12,0.5 1.12,1.12 0,0.62 -0.5,1.12 -1.12,1.12 z" />
      <path
         id="Cerebro_atrás-3"
         data-name="Cerebro atrás"
         class="cls-22"
         d="m 3046.83,73.26 c 0,-28.89 -15.07,-54.55 -38.45,-71.14 -21.57,16.23 -45.89,28.99 -71.83,36.61 -39.31,12.54 -76.12,8.12 -87.01,-37.45 -1.89,-8.71 -3.46,-18.5 -2.88,-26.97 1.29,13.38 3.5,26.84 9.14,39.07 9.62,22.36 30.6,31.66 54.13,29.78 18.01,-1.07 35.24,-7.6 51.35,-15.4 16.16,-7.36 32.02,-16.92 47.07,-25.67 -0.12,-0.08 -0.23,-0.17 -0.35,-0.26 2.61,-8.06 4.08,-16.56 4.08,-25.38 0,-50.04 -45.01,-90.6 -100.53,-90.6 -4.6,0 -9.09,0.38 -13.52,0.91 -6.89,-43.99 -48.71,-77.86 -99.42,-77.86 -22.65,0 -43.5,6.79 -60.28,18.2 -30.71,117.63 19.35,276.94 19.35,276.94 15.34,63.14 15.99,112.11 7.48,150.13 1.55,-0.18 3.08,-0.39 4.61,-0.64 36.35,17.81 58.99,44.73 68.56,80.34 h 43.75 l -8.76,-71.27 c 6.73,1.28 13.7,1.98 20.86,1.98 55.52,0 100.53,-40.56 100.53,-90.6 0,-6.63 -0.88,-13.05 -2.39,-19.27 -18.7,9.12 -39.93,12.72 -60.63,12.02 -28.09,-0.46 -52.08,-11.05 -52.64,-42.59 -0.03,-10.89 2.48,-21.53 6.01,-31.76 -0.83,6.62 -3.21,14.09 -3.48,21.11 -4.02,34.5 17.11,52.03 50.14,52.46 20.54,-0.22 41.4,-5.19 60.54,-11.56 -0.05,-0.19 -0.08,-0.38 -0.13,-0.57 32.46,-15.02 54.71,-45.43 54.71,-80.58 z m -95.24,-158.62 c 11.88,4.4 21.1,14.36 26.61,25.55 5.03,8.34 9.3,17.42 9.18,27.37 0,0 -0.22,0.03 -0.22,0.03 -2.56,-7.85 -4.42,-15.82 -7.61,-23.42 -6.52,-12.02 -17.1,-21.33 -28.05,-29.32 0,0 0.09,-0.2 0.09,-0.2 z m -79.64,48.18 c -0.27,-1.64 -0.46,-3.3 -0.78,-4.93 -6.9,-34.56 -41.87,-15.13 -59.91,-2.42 19.69,-19.42 60.06,-33.87 60.91,7.32 0,0 -0.22,0.02 -0.22,0.02 z m -40.37,-126.48 c 8.45,4.83 16.61,10.67 21.36,19.42 0,0 -0.18,0.14 -0.18,0.14 -6.06,-5.61 -11.57,-11.65 -18.07,-16.74 -11.56,-7.31 -25.33,-10.29 -38.79,-11.93 0,0 -0.02,-0.22 -0.02,-0.22 12.52,-1.95 25.42,2.25 35.69,9.33 z m -67.51,70.25 c 5.06,3.77 10.25,7.31 15.8,10.17 22.19,11.63 49.42,12.11 72.46,2.45 17.02,-7.69 33.23,-19.06 45.79,-32.38 -10.66,15.9 -27.99,26.24 -45.5,33.1 -23.6,9.94 -50.95,12.14 -73.6,-1.63 -5.52,-3.21 -10.49,-7.23 -15.1,-11.54 z m 25.1,124.58 c -3.06,3.51 -6.89,5.99 -10.75,8.23 -3.92,2.16 -8,3.94 -12.18,5.41 l -0.09,-0.21 c 8.9,-5.32 20.07,-10.22 24.26,-20.24 2.82,-10.57 -10.82,-18.54 -18.94,-22.51 -12.04,-5.19 -25.57,-8.29 -37.42,-13.03 13.2,1.85 25.99,6.11 37.74,12.37 11.44,5.29 29.46,15.85 17.38,29.98 z m 17.89,102.2 c 15.93,6.22 30.61,15.63 42.76,27.66 19.07,17 28.89,39.45 8.16,59.85 -3.88,4.08 -8.81,7.46 -13.51,10.5 l -0.13,-0.18 c 4.29,-3.66 8.72,-7.2 12.35,-11.51 18.25,-19.29 10.58,-41.96 -7.37,-58.11 -12.75,-11.1 -28.29,-19.46 -42.27,-28.2 z m 30.53,116.26 c -14.42,-8.87 -23.97,-22.14 -13.96,-38.56 3.5,-5.56 8.24,-10.23 13.42,-14.16 l 0.15,0.17 c -2.9,3.19 -5.85,6.29 -8.27,9.78 -12.48,15.98 -7.48,31.91 9.05,42.15 11.1,6.31 24.05,9.99 35.94,13.4 -13.04,-0.43 -25.66,-5.44 -36.33,-12.78 z m 81.27,-170.14 c -28.13,-26.8 -63.24,-8.34 -86.37,14.47 28.13,-33.1 71.62,-44.8 97.98,-2.77 2.61,4.67 6.01,9.94 7.38,14.75 -4.93,-9.72 -11.01,-18.99 -18.99,-26.45 z m 98.34,-7.66 c -0.25,9.73 -1.54,19.69 -7,28.01 0,0 -0.2,-0.09 -0.2,-0.09 2.07,-7.99 4.79,-15.71 6.19,-23.84 0.97,-13.64 -2.93,-27.18 -7.85,-39.81 0,0 0.19,-0.12 0.19,-0.12 7.64,10.11 10.05,23.46 8.67,35.85 z" />
    </g>
  </g>
</svg>
